 <svg version="1.0" xmlns="http://www.w3.org/2000/svg"  width="508.000000pt" height="483.000000pt" viewBox="0 0 508.000000 483.000000"  preserveAspectRatio="xMidYMid meet">  <g transform="translate(0.000000,483.000000) scale(0.100000,-0.100000)" fill="#000000" stroke="none"> <path d="M1964 4685 c-884 -129 -1588 -799 -1734 -1650 -99 -571 70 -1172 458 -1635 188 -225 400 -388 677 -521 572 -275 1183 -274 1760 5 407 196 741 527 940 930 146 297 215 585 215 899 0 509 -216 1016 -591 1388 -321 318 -743 525 -1189 584 -138 18 -409 18 -536 0z m444 -246 c290 -31 583 -136 819 -292 103 -69 233 -172 233 -185 0 -5 -30 -14 -67 -21 -92 -18 -283 -81 -374 -123 -41 -19 -111 -60 -156 -90 l-83 -56 -76 24 c-255 78 -543 88 -812 28 -62 -14 -131 -32 -153 -39 l-40 -14 -75 50 c-142 96 -375 190 -542 219 l-73 13 28 30 c15 16 64 57 108 92 348 272 831 411 1263 364z m1401 -914 c87 -151 157 -356 192 -555 20 -111 17 -439 -5 -565 -9 -55 -20 -103 -24 -107 -21 -21 -33 16 -42 128 -16 193 -78 392 -170 543 l-50 82 0 132 c0 149 -14 328 -35 462 -8 50 -15 94 -15 99 0 16 93 -122 149 -219z m-3003 109 c-23 -155 -36 -318 -36 -454 0 -115 -2 -128 -24 -160 -35 -52 -101 -185 -130 -264 -34 -90 -63 -236 -72 -358 -6 -84 -9 -98 -24 -98 -14 0 -20 14 -29 63 -80 444 -3 872 222 1231 57 92 98 148 104 143 2 -2 -3 -49 -11 -103z m350 40 c163 -53 302 -131 412 -229 l52 -47 63 25 c34 14 79 29 100 35 l37 11 36 -70 c19 -39 42 -73 50 -76 9 -3 38 5 65 17 56 27 60 40 29 100 -35 69 -39 67 117 86 l52 6 3 -73 c3 -70 4 -74 30 -83 17 -6 42 -6 65 0 l38 9 3 65 c2 36 7 69 11 73 8 8 167 -9 183 -19 4 -3 -5 -31 -21 -63 -16 -31 -26 -62 -23 -68 12 -19 76 -53 99 -53 18 0 31 15 60 70 28 51 43 70 58 69 11 0 54 -13 95 -29 41 -17 79 -30 83 -30 5 0 37 26 72 58 84 77 197 143 329 193 169 63 157 69 177 -86 10 -71 23 -233 30 -359 l13 -229 43 -66 c109 -164 193 -414 193 -570 l0 -51 -207 0 c-234 0 -243 -3 -243 -71 0 -68 3 -69 351 -69 168 0 308 -3 311 -6 3 -3 -4 -31 -16 -62 -18 -46 -27 -58 -47 -60 -14 -2 -103 6 -199 17 -293 34 -355 36 -385 17 -32 -21 -35 -76 -6 -105 25 -25 58 -30 484 -68 31 -3 57 -8 57 -11 0 -10 -55 -92 -62 -92 -3 0 -78 12 -165 26 -241 39 -286 41 -312 15 -11 -11 -21 -33 -21 -48 0 -55 27 -71 146 -88 87 -13 169 -26 242 -41 l23 -5 -23 -32 c-13 -18 -75 -84 -138 -147 -120 -119 -268 -231 -420 -316 -276 -156 -676 -244 -965 -214 -404 42 -726 175 -1023 424 -93 79 -275 273 -267 286 3 4 24 10 47 13 126 17 301 48 317 57 22 11 31 32 31 70 0 55 -55 71 -171 50 -30 -5 -114 -19 -188 -30 -147 -22 -136 -25 -171 40 l-18 36 101 12 c56 6 156 17 222 23 167 15 181 17 206 38 28 22 30 73 4 101 -24 26 -51 26 -350 -5 -132 -14 -243 -25 -247 -25 -7 0 -48 103 -48 120 0 6 116 10 305 10 l306 0 24 25 c30 29 31 54 4 88 l-20 27 -207 2 -207 3 3 55 c10 182 84 400 196 575 l36 55 10 177 c6 98 19 254 30 346 11 93 20 175 20 183 0 19 5 18 96 -12z"/> <path d="M1433 2715 c-164 -82 -167 -310 -4 -398 101 -56 231 -24 296 73 40 60 47 156 17 216 -62 121 -192 167 -309 109z m13 -63 c19 -13 23 -39 7 -61 -18 -27 -50 -24 -69 4 -24 37 25 82 62 57z"/> <path d="M2855 2724 c-151 -55 -188 -262 -68 -376 61 -58 169 -75 248 -39 46 20 101 79 121 127 32 77 10 169 -57 236 -67 67 -153 85 -244 52z m3 -76 c21 -21 14 -57 -12 -70 -14 -6 -32 -8 -40 -5 -21 8 -31 54 -16 72 15 18 51 20 68 3z"/> <path d="M2150 2528 c-68 -35 -85 -66 -85 -153 0 -74 0 -74 43 -118 l43 -43 -21 -27 c-31 -40 -72 -36 -106 8 -43 57 -114 42 -114 -24 0 -63 91 -141 165 -141 41 1 106 32 138 66 l27 28 32 -31 c37 -36 94 -63 133 -63 71 0 165 80 165 142 0 25 -39 68 -63 68 -5 0 -26 -18 -46 -40 -48 -52 -77 -52 -120 2 -11 15 -9 21 18 44 43 36 61 74 61 129 0 135 -144 217 -270 153z"/> </g> </svg> 