<?xml version="1.0" standalone="no"?>
<!DOCTYPE svg PUBLIC "-//W3C//DTD SVG 20010904//EN"
 "http://www.w3.org/TR/2001/REC-SVG-20010904/DTD/svg10.dtd">
<svg version="1.0" xmlns="http://www.w3.org/2000/svg"
 width="300.000000pt" height="285.000000pt" viewBox="0 0 300.000000 285.000000"
 preserveAspectRatio="xMidYMid meet">
<metadata>
Created by potrace 1.10, written by Peter Selinger 2001-2011
</metadata>
<g transform="translate(0.000000,285.000000) scale(0.100000,-0.100000)"
fill="#000000" stroke="none">
<path d="M1258 2745 c-490 -92 -905 -446 -1056 -900 -156 -468 -27 -998 331
-1359 261 -264 684 -429 1026 -402 347 28 629 152 869 380 124 119 210 235
282 381 98 199 140 377 140 592 0 616 -438 1149 -1064 1295 -119 28 -411 35
-528 13z m390 -30 c208 -27 384 -89 549 -192 287 -180 501 -470 582 -788 63
-246 44 -513 -52 -760 -75 -192 -154 -313 -302 -460 -178 -177 -367 -285 -625
-355 -165 -45 -447 -47 -597 -5 -122 34 -151 44 -201 64 -189 75 -404 230
-517 371 -133 168 -223 343 -270 530 -31 122 -34 152 -36 312 -1 141 4 196 28
293 43 179 106 309 223 467 213 286 528 471 890 522 131 18 196 18 328 1z"/>
<path d="M1425 2632 c-40 -2 -152 -18 -190 -26 -80 -17 -123 -29 -150 -40 -16
-8 -49 -21 -73 -30 -127 -48 -341 -196 -357 -247 -10 -31 12 -55 62 -69 147
-37 286 -96 366 -152 32 -23 68 -21 187 8 103 25 354 25 455 0 129 -33 138
-32 207 11 82 51 165 87 263 113 104 29 129 43 133 73 8 60 -205 204 -419 285
-140 53 -343 84 -484 74z m289 -58 c208 -43 428 -150 571 -278 l40 -35 -29 -1
c-78 -1 -264 -69 -372 -136 l-71 -44 -99 27 c-86 23 -120 26 -254 27 -136 0
-168 -3 -262 -26 l-106 -27 -81 48 c-90 55 -225 107 -316 124 -33 6 -62 12
-64 13 -4 4 43 45 118 102 72 54 225 133 324 166 75 24 197 51 282 60 67 7
243 -4 319 -20z"/>
<path d="M485 2108 c-54 -63 -150 -266 -181 -383 -49 -185 -43 -510 11 -573
40 -46 85 -5 85 78 0 47 32 191 57 251 9 24 34 73 54 109 36 64 37 68 43 200
3 74 11 176 17 226 7 61 8 98 1 109 -8 16 -11 13 -20 -16 -17 -53 -32 -182
-37 -322 -4 -109 -8 -133 -25 -157 -61 -86 -113 -246 -125 -388 -10 -111 -29
-110 -45 3 -18 125 -8 370 18 467 37 134 98 264 196 411 31 45 -6 34 -49 -15z"/>
<path d="M2451 2128 c7 -13 24 -41 40 -64 43 -64 106 -192 133 -275 54 -161
68 -339 44 -535 -9 -77 -14 -94 -28 -94 -14 0 -18 14 -23 93 -6 112 -51 257
-108 352 l-39 64 0 123 c0 123 -21 304 -39 336 -9 16 -10 16 -17 -1 -3 -10 -4
-44 0 -75 13 -103 17 -166 19 -283 1 -69 7 -122 13 -130 57 -70 121 -250 135
-384 13 -110 32 -140 77 -115 34 20 50 83 59 241 8 160 -22 350 -76 472 -11
27 -21 53 -21 58 0 16 -98 175 -128 207 -36 38 -59 43 -41 10z"/>
<path d="M692 2110 c-12 -12 -22 -23 -22 -25 0 -3 -6 -49 -14 -103 -8 -53 -17
-155 -21 -226 -6 -121 -8 -131 -39 -180 -60 -97 -91 -178 -111 -293 -19 -110
-19 -106 10 -141 30 -36 22 -42 -64 -42 -76 0 -97 -20 -82 -77 18 -67 34 -74
158 -75 l108 -1 -79 -13 c-44 -8 -85 -19 -92 -25 -27 -22 -26 -49 1 -85 l27
-36 79 3 c43 2 81 0 85 -4 4 -4 -3 -7 -15 -7 -35 0 -89 -29 -96 -51 -8 -25 12
-57 84 -133 152 -160 369 -288 586 -344 210 -55 465 -46 674 24 184 61 382
188 513 327 82 87 95 117 65 145 -12 11 -35 22 -52 25 -173 33 -183 45 -20 24
120 -16 143 -11 172 32 28 41 28 43 5 70 -13 16 -38 25 -107 35 -49 8 -85 15
-80 16 6 1 13 2 17 1 3 0 48 -3 99 -6 97 -5 127 3 147 42 39 75 13 113 -75
113 -78 0 -95 11 -65 43 30 32 29 93 -4 209 -25 91 -54 157 -102 232 -21 35
-26 57 -33 165 -18 283 -25 329 -55 362 -21 23 -39 24 -101 3 -80 -27 -164
-70 -232 -120 l-65 -47 -50 13 c-28 7 -56 15 -62 17 -6 2 -26 -12 -45 -32 -40
-41 -48 -43 -42 -11 7 36 -13 64 -55 76 -67 18 -99 13 -123 -20 l-22 -29 -30
30 c-27 28 -34 31 -78 27 -69 -7 -99 -30 -99 -75 l0 -37 -33 32 c-36 35 -61
39 -131 20 -42 -11 -44 -11 -87 24 -62 51 -133 90 -217 121 -88 32 -102 33
-130 7z m138 -52 c87 -34 125 -56 199 -116 l53 -44 55 21 c30 12 60 21 67 21
7 0 21 -18 31 -40 26 -58 36 -64 79 -43 20 9 36 21 36 25 0 5 -9 26 -20 48
l-20 39 48 6 c93 12 87 16 90 -43 l3 -53 42 3 42 3 3 51 3 51 61 -9 c34 -4 63
-10 65 -12 3 -2 -5 -22 -16 -44 l-21 -41 34 -20 c18 -12 38 -21 45 -21 6 0 22
23 36 50 14 28 29 50 33 50 4 0 35 -10 69 -21 l62 -22 52 47 c29 26 80 62 113
78 61 31 179 78 195 78 12 0 41 -269 41 -379 0 -93 0 -93 45 -165 56 -90 91
-183 110 -292 8 -48 15 -91 15 -95 0 -5 -64 -9 -143 -9 -150 0 -167 -5 -167
-45 0 -43 13 -45 241 -45 l217 0 -21 -50 c-15 -35 -26 -49 -37 -46 -34 10
-318 37 -355 34 -38 -3 -40 -4 -40 -38 0 -25 6 -37 22 -45 12 -6 96 -17 187
-25 l165 -13 -17 -30 c-9 -16 -23 -31 -29 -34 -7 -3 -76 5 -154 18 -156 25
-172 23 -177 -29 -4 -40 6 -45 160 -67 l118 -17 -61 -70 c-218 -245 -524 -392
-845 -405 -354 -15 -675 118 -923 384 -45 47 -79 88 -77 90 2 2 59 12 127 23
91 14 127 23 136 36 18 25 16 38 -7 59 -20 18 -25 18 -167 -5 l-146 -23 -24
29 c-12 16 -23 32 -23 35 0 3 62 11 138 18 205 18 221 21 233 43 8 15 8 27 0
44 -13 29 -46 31 -236 9 -187 -21 -180 -22 -193 24 -7 21 -12 41 -12 45 0 3
92 6 204 6 112 0 211 3 220 6 19 7 21 55 4 72 -8 8 -56 12 -150 12 l-138 0 0
30 c0 98 60 280 125 379 31 46 35 60 35 117 0 65 25 334 36 387 7 32 5 32 124
-15z"/>
<path d="M813 1855 c2 -72 8 -88 23 -64 3 6 26 23 50 39 l43 27 -53 37 c-29
20 -55 36 -59 36 -3 0 -5 -34 -4 -75z m47 30 c0 6 7 1 15 -9 13 -17 13 -22 -2
-38 -26 -28 -43 -22 -43 15 0 38 10 53 22 35 4 -7 8 -8 8 -3z"/>
<path d="M2127 1909 c-15 -11 -25 -25 -22 -30 4 -5 0 -6 -8 -3 -8 3 -19 -1
-25 -9 -9 -10 0 -21 43 -50 l55 -37 0 75 c0 41 -3 75 -7 75 -5 0 -20 -10 -36
-21z m27 -44 c4 -14 3 -32 -1 -40 -7 -11 -12 -10 -31 5 -20 16 -21 22 -10 39
17 28 34 26 42 -4z"/>
<path d="M1358 1823 c-8 -35 -33 -44 -56 -21 -7 7 -12 8 -12 2 0 -15 22 -34
41 -34 25 0 41 25 37 57 l-3 28 -7 -32z"/>
<path d="M1450 1832 c0 -20 26 -42 49 -42 12 0 41 28 41 41 0 5 -11 2 -24 -6
-23 -15 -25 -15 -45 6 l-21 23 0 -22z"/>
<path d="M1616 1837 c-22 -48 50 -92 74 -47 10 19 9 20 -8 9 -27 -17 -50 -5
-54 28 -4 24 -5 25 -12 10z"/>
<path d="M720 1821 c0 -5 4 -11 8 -13 17 -6 21 -76 6 -89 -8 -6 -14 -16 -14
-22 0 -5 9 -2 20 8 15 14 20 31 20 72 0 46 -2 53 -20 53 -11 0 -20 -4 -20 -9z"/>
<path d="M2220 1777 c0 -41 5 -58 20 -72 11 -10 20 -13 20 -7 0 6 -4 14 -10
17 -16 10 -12 77 7 97 15 17 15 18 -10 18 -26 0 -27 -2 -27 -53z"/>
<path d="M953 1440 c-137 -70 -87 -280 67 -280 87 0 153 62 153 144 0 117
-116 188 -220 136z m134 -45 c86 -57 42 -195 -62 -195 -34 0 -82 25 -95 49
-16 32 -12 61 9 61 31 0 71 39 71 69 0 15 3 30 6 34 9 8 43 0 71 -18z m-113
-8 c8 -12 7 -21 -6 -33 -22 -22 -48 -11 -48 20 0 37 34 45 54 13z"/>
<path d="M1905 1448 c-41 -14 -65 -37 -81 -75 -44 -102 27 -213 135 -213 159
0 211 215 68 280 -47 22 -77 24 -122 8z m3 -50 c16 -16 15 -23 -4 -42 -21 -21
-31 -20 -45 6 -10 18 -8 24 7 35 22 16 27 16 42 1z m118 -3 c81 -56 35 -195
-65 -195 -44 0 -97 41 -107 83 -5 24 -3 27 18 27 34 0 78 43 78 75 0 21 5 25
28 25 15 0 37 -7 48 -15z"/>
<path d="M1428 1314 c-71 -38 -76 -139 -8 -191 21 -16 2 -47 -32 -51 -18 -2
-30 4 -42 22 -18 28 -45 33 -64 14 -21 -21 -13 -49 22 -84 29 -29 41 -34 81
-34 39 0 52 5 78 31 25 26 33 29 41 17 36 -47 102 -61 156 -33 56 29 70 100
23 111 -21 6 -30 2 -45 -20 -23 -31 -48 -33 -73 -6 -17 19 -17 20 8 40 38 30
52 80 34 122 -30 71 -111 99 -179 62z m116 -45 c32 -25 35 -69 5 -110 -11 -16
-21 -43 -21 -60 -1 -27 -4 -30 -25 -24 -14 3 -31 1 -38 -5 -12 -10 -13 -6 -9
22 4 25 -1 41 -20 67 -32 44 -33 71 -1 105 30 32 72 34 109 5z"/>
<path d="M630 706 c0 -4 39 -47 88 -95 85 -87 175 -152 279 -205 85 -43 75
-29 -14 18 -122 66 -169 101 -265 200 -49 49 -88 86 -88 82z"/>
<path d="M2143 660 c-29 -27 -64 -57 -78 -66 -14 -9 -23 -19 -21 -22 6 -6 117
85 140 116 25 33 17 27 -41 -28z"/>
<path d="M820 666 c32 -35 90 -82 90 -74 0 2 -28 28 -62 58 -44 37 -53 42 -28
16z"/>
<path d="M2255 612 c-44 -48 -68 -78 -55 -68 58 46 160 161 138 155 -2 0 -39
-39 -83 -87z"/>
<path d="M2005 554 c-28 -22 -143 -79 -188 -94 -21 -6 -36 -14 -33 -17 12 -13
211 82 236 112 16 19 10 19 -15 -1z"/>
<path d="M980 539 c0 -7 179 -93 184 -88 2 2 -39 24 -90 49 -52 25 -94 43 -94
39z"/>
<path d="M1680 420 c-14 -4 -39 -8 -57 -9 -17 -1 -34 -5 -37 -10 -4 -5 12 -7
36 -4 49 7 132 32 103 31 -11 0 -31 -4 -45 -8z"/>
<path d="M1423 393 c26 -2 67 -2 90 0 23 2 2 3 -48 3 -49 0 -68 -1 -42 -3z"/>
<path d="M1448 293 c29 -2 74 -2 100 0 26 2 2 3 -53 3 -55 0 -76 -1 -47 -3z"/>
</g>
</svg>
